<?xml version="1.0" encoding="UTF-8"?>
<svg id="Layer_1" data-name="Layer 1" xmlns="http://www.w3.org/2000/svg" viewBox="0 0 1109.15 284.69">
  <defs>
    <style>
      .cls-1 {
        fill: #009383;
      }
    </style>
  </defs>
  <g>
    <path class="cls-1" d="M222.61,64.05l-186.16-1.31C63.71,24.88,110.5,3.44,156.82.89c41.01-2.26,86.08.58,127.31-.12l-.28,4.66c-3.96,69.39,13.7,141.79-25.56,203.58-4.04,6.35-29.42,38.83-35.04,39.12-3.2.16-.65-3.06-.65-3.23V64.05Z"/>
    <path class="cls-1" d="M.01,172.69c-.19-21.01,1.6-43.21,9.77-62.46h164.66v165.24c-20.05,6.72-41.31,9.87-62.48,9.11v-109.94L.01,172.69Z"/>
    <rect class="cls-1" x=".02" y="220.83" width="63.78" height="63.75"/>
  </g>
  <g>
    <path class="cls-1" d="M363.18,32.64v26.78h43.19v24.9h-43.19v29.05h48.85v25.84h-81.11V6.79h81.11v25.84h-48.85Z"/>
    <path class="cls-1" d="M454.84,135.81c-7.67-3.14-13.8-7.8-18.39-13.96-4.59-6.16-7.01-13.58-7.26-22.26h34.33c.5,4.9,2.2,8.65,5.09,11.22,2.89,2.58,6.66,3.87,11.32,3.87s8.55-1.1,11.32-3.3c2.76-2.2,4.15-5.25,4.15-9.15,0-3.27-1.1-5.97-3.3-8.11-2.2-2.14-4.9-3.9-8.11-5.28-3.21-1.38-7.77-2.95-13.67-4.72-8.55-2.64-15.53-5.28-20.94-7.92-5.41-2.64-10.06-6.54-13.96-11.69-3.9-5.15-5.85-11.88-5.85-20.18,0-12.32,4.46-21.97,13.39-28.95,8.93-6.98,20.56-10.47,34.89-10.47s26.34,3.49,35.27,10.47c8.93,6.98,13.7,16.69,14.33,29.14h-34.89c-.25-4.27-1.82-7.64-4.72-10.09-2.89-2.45-6.6-3.68-11.13-3.68-3.9,0-7.04,1.04-9.43,3.11-2.39,2.07-3.58,5.06-3.58,8.96,0,4.28,2.01,7.61,6.04,10,4.02,2.39,10.31,4.97,18.86,7.73,8.55,2.89,15.5,5.66,20.84,8.3,5.34,2.64,9.96,6.48,13.86,11.51,3.9,5.03,5.85,11.51,5.85,19.43s-1.92,14.4-5.75,20.56c-3.84,6.16-9.4,11.07-16.69,14.71-7.29,3.65-15.91,5.47-25.84,5.47s-18.36-1.57-26.03-4.72Z"/>
    <path class="cls-1" d="M636.86,48.67c-2.39-4.4-5.82-7.76-10.28-10.09-4.46-2.33-9.71-3.49-15.75-3.49-10.44,0-18.8,3.43-25.09,10.28-6.29,6.85-9.43,16-9.43,27.44,0,12.2,3.3,21.72,9.9,28.58,6.6,6.85,15.68,10.28,27.25,10.28,7.92,0,14.62-2.01,20.09-6.04,5.47-4.02,9.46-9.81,11.98-17.35h-40.93v-23.77h70.17v29.99c-2.39,8.05-6.45,15.53-12.17,22.45-5.72,6.92-12.99,12.51-21.79,16.79-8.8,4.28-18.74,6.41-29.8,6.41-13.08,0-24.74-2.86-34.99-8.58-10.25-5.72-18.23-13.67-23.95-23.86-5.72-10.19-8.58-21.81-8.58-34.89s2.86-24.74,8.58-34.99c5.72-10.25,13.67-18.23,23.86-23.95,10.18-5.72,21.81-8.58,34.89-8.58,15.84,0,29.2,3.84,40.08,11.51,10.88,7.67,18.07,18.3,21.6,31.88h-35.65Z"/>
    <path class="cls-1" d="M847.35,6.79v132.41h-32.25v-54.51h-50.17v54.51h-32.25V6.79h32.25v51.87h50.17V6.79h32.25Z"/>
    <path class="cls-1" d="M902.24,6.79v79.22c0,7.92,1.95,14.02,5.85,18.3,3.9,4.28,9.62,6.41,17.16,6.41s13.33-2.14,17.35-6.41c4.02-4.27,6.04-10.37,6.04-18.3V6.79h32.25v79.03c0,11.82-2.52,21.82-7.54,29.99-5.03,8.18-11.79,14.33-20.28,18.48-8.49,4.15-17.95,6.22-28.39,6.22s-19.78-2.04-28.01-6.13c-8.24-4.08-14.75-10.25-19.52-18.48-4.78-8.23-7.17-18.26-7.17-30.08V6.79h32.25Z"/>
    <path class="cls-1" d="M1102.17,82.71c4.65,5.97,6.98,12.8,6.98,20.47,0,11.07-3.87,19.84-11.6,26.31-7.73,6.48-18.52,9.71-32.35,9.71h-61.68V6.79h59.6c13.45,0,23.98,3.08,31.59,9.24,7.61,6.16,11.41,14.52,11.41,25.09,0,7.8-2.05,14.27-6.13,19.43-4.09,5.16-9.53,8.74-16.32,10.75,7.67,1.64,13.83,5.44,18.48,11.41ZM1035.78,60.36h21.12c5.28,0,9.34-1.16,12.17-3.49,2.83-2.33,4.24-5.75,4.24-10.28s-1.42-7.98-4.24-10.37c-2.83-2.39-6.88-3.58-12.17-3.58h-21.12v27.73ZM1072.09,109.5c2.95-2.45,4.43-6,4.43-10.66s-1.54-8.3-4.62-10.94c-3.08-2.64-7.33-3.96-12.73-3.96h-23.39v29.24h23.77c5.41,0,9.59-1.23,12.54-3.68Z"/>
  </g>
  <g>
    <path class="cls-1" d="M387.88,247.82h-45.01l-8.63,23.5h-10.48l36.1-97.67h11.18l35.96,97.67h-10.48l-8.63-23.5ZM384.91,239.61l-19.53-53.51-19.54,53.51h39.07Z"/>
    <path class="cls-1" d="M429.22,262.54h50.54v8.78h-62.14v-7.93l49.83-82.24h-48.98v-8.78h60.59v7.93l-49.83,82.24Z"/>
    <path class="cls-1" d="M507.07,180.44v36.95h37.51v8.21h-37.51v37.51h41.76v8.21h-51.67v-99.09h51.67v8.21h-41.76Z"/>
    <path class="cls-1" d="M621.02,271.32l-24.49-41.33h-18.26v41.33h-9.91v-98.95h29.73c11.04,0,19.42,2.64,25.13,7.93,5.71,5.29,8.56,12.22,8.56,20.81,0,7.17-2.05,13.28-6.16,18.33-4.11,5.05-10.17,8.33-18.19,9.84l25.48,42.04h-11.89ZM578.27,221.92h19.96c7.74,0,13.57-1.89,17.48-5.66,3.92-3.77,5.88-8.82,5.88-15.15s-1.89-11.54-5.66-15.08c-3.78-3.54-9.72-5.31-17.84-5.31h-19.82v41.19Z"/>
    <path class="cls-1" d="M711.9,228.71c3.87,4.62,5.8,10,5.8,16.14,0,5-1.25,9.51-3.75,13.52-2.5,4.01-6.16,7.17-10.97,9.48-4.81,2.31-10.57,3.47-17.27,3.47h-34.26v-98.95h33.27c10,0,17.62,2.31,22.86,6.94,5.24,4.62,7.86,10.62,7.86,17.98,0,6.14-1.65,11.11-4.95,14.93-3.3,3.82-7.55,6.49-12.74,8,5.57,1.04,10.29,3.87,14.16,8.49ZM661.37,216.11h23.07c6.7,0,11.87-1.58,15.5-4.74,3.63-3.16,5.45-7.52,5.45-13.09s-1.82-9.77-5.45-12.88c-3.63-3.11-8.94-4.67-15.93-4.67h-22.65v35.39ZM701.78,257.87c4.01-3.4,6.02-8.07,6.02-14.01s-2.1-10.69-6.3-14.23c-4.2-3.54-9.84-5.31-16.92-5.31h-23.21v38.65h23.64c7.17,0,12.76-1.7,16.77-5.1Z"/>
    <path class="cls-1" d="M793.29,247.82h-45.01l-8.63,23.5h-10.48l36.1-97.67h11.18l35.96,97.67h-10.48l-8.63-23.5ZM790.32,239.61l-19.53-53.51-19.54,53.51h39.07Z"/>
    <path class="cls-1" d="M838.17,172.37v98.95h-9.91v-98.95h9.91Z"/>
    <path class="cls-1" d="M906.39,172.37v74.88c0,7.55-2.31,13.61-6.94,18.19-4.62,4.58-10.81,6.87-18.54,6.87s-14.42-2.43-19.18-7.29c-4.77-4.86-7.15-11.44-7.15-19.75h10.05c.09,5.38,1.44,9.77,4.03,13.17,2.59,3.4,6.68,5.1,12.25,5.1,5.28,0,9.2-1.56,11.75-4.67,2.55-3.11,3.82-6.98,3.82-11.61v-74.88h9.91Z"/>
    <path class="cls-1" d="M988.64,247.82h-45.01l-8.63,23.5h-10.48l36.1-97.67h11.18l35.96,97.67h-10.48l-8.63-23.5ZM985.66,239.61l-19.53-53.51-19.54,53.51h39.07Z"/>
    <path class="cls-1" d="M1098.2,271.32h-9.91l-54.78-83.23v83.23h-9.91v-98.95h9.91l54.78,83.09v-83.09h9.91v98.95Z"/>
  </g>
</svg>